
<svg width="470px" height="74px" viewBox="0 0 470 74" version="1.1" xmlns="http://www.w3.org/2000/svg" xmlns:xlink="http://www.w3.org/1999/xlink">
    <!-- Generator: Sketch 43.1 (39012) - http://www.bohemiancoding.com/sketch -->
    <desc>Created with Sketch.</desc>
    <defs></defs>
    <g id="Page-1" stroke="none" stroke-width="1" fill="none" fill-rule="evenodd">
        <path d="M49.4875,48.3216146 C49.4875,50.3771804 48.8914651,52.0874498 47.6993774,53.452474 C46.5072898,54.8174981 45.0413661,55.5 43.3015625,55.5 L18.5578125,55.5 C16.8180089,55.5 15.3520852,54.8174981 14.1599976,53.452474 C12.9679099,52.0874498 12.371875,50.3771804 12.371875,48.3216146 C12.371875,46.2660487 12.5168565,44.3791319 12.8068237,42.6608073 C13.096791,40.9424827 13.572008,39.2884194 14.232489,37.6985677 C14.89297,36.108716 15.8675676,34.8561244 17.156311,33.9407552 C18.4450545,33.025386 20.0076324,32.5677083 21.8440918,32.5677083 C22.0374033,32.6961812 22.5206748,32.9852408 23.2939209,33.4348958 C24.067167,33.8845509 24.6712564,34.2298165 25.1062073,34.4707031 C25.5411582,34.7115897 26.1130295,34.9926199 26.8218384,35.3138021 C27.5306473,35.6349842 28.2233365,35.8678378 28.8999268,36.0123698 C29.5765171,36.1569018 30.2530972,36.2291667 30.9296875,36.2291667 C31.6062778,36.2291667 32.2828579,36.1569018 32.9594482,36.0123698 C33.6360385,35.8678378 34.3287277,35.6349842 35.0375366,35.3138021 C35.7463455,34.9926199 36.3182168,34.7115897 36.7531677,34.4707031 C37.1881186,34.2298165 37.792208,33.8845509 38.5654541,33.4348958 C39.3387002,32.9852408 39.8219717,32.6961812 40.0152832,32.5677083 C41.8517426,32.5677083 43.4143205,33.025386 44.703064,33.9407552 C45.9918074,34.8561244 46.966405,36.108716 47.626886,37.6985677 C48.287367,39.2884194 48.762584,40.9424827 49.0525513,42.6608073 C49.3425185,44.3791319 49.4875,46.2660487 49.4875,48.3216146 Z M41.900061,23.2695312 C41.900061,26.2886436 40.8288091,28.8660918 38.6862732,31.0019531 C36.5437373,33.1378145 33.9582345,34.2057292 30.9296875,34.2057292 C27.9011405,34.2057292 25.3156377,33.1378145 23.1731018,31.0019531 C21.0305659,28.8660918 19.959314,26.2886436 19.959314,23.2695312 C19.959314,20.2504189 21.0305659,17.6729707 23.1731018,15.5371094 C25.3156377,13.401248 27.9011405,12.3333333 30.9296875,12.3333333 C33.9582345,12.3333333 36.5437373,13.401248 38.6862732,15.5371094 C40.8288091,17.6729707 41.900061,20.2504189 41.900061,23.2695312 Z M86.603125,44.7083333 L86.603125,47.7916667 C86.603125,48.2413217 86.4581435,48.6106756 86.1681763,48.8997396 C85.878209,49.1888035 85.5077008,49.3333333 85.0566406,49.3333333 L57.2199219,49.3333333 C56.7688617,49.3333333 56.3983535,49.1888035 56.1083862,48.8997396 C55.818419,48.6106756 55.6734375,48.2413217 55.6734375,47.7916667 L55.6734375,44.7083333 C55.6734375,44.2586783 55.818419,43.8893244 56.1083862,43.6002604 C56.3983535,43.3111965 56.7688617,43.1666667 57.2199219,43.1666667 L85.0566406,43.1666667 C85.5077008,43.1666667 85.878209,43.3111965 86.1681763,43.6002604 C86.4581435,43.8893244 86.603125,44.2586783 86.603125,44.7083333 Z M86.603125,32.5677083 L86.603125,35.265625 C86.603125,35.7473982 86.43398,36.1568994 86.0956848,36.4941406 C85.7573897,36.8313819 85.3466089,37 84.8633301,37 L57.4132324,37 C56.9299536,37 56.5191728,36.8313819 56.1808777,36.4941406 C55.8425825,36.1568994 55.6734375,35.7473982 55.6734375,35.265625 L55.6734375,32.5677083 C55.6734375,32.0859351 55.8425825,31.676434 56.1808777,31.3391927 C56.5191728,31.0019514 56.9299536,30.8333333 57.4132324,30.8333333 L84.8633301,30.8333333 C85.3466089,30.8333333 85.7573897,31.0019514 86.0956848,31.3391927 C86.43398,31.676434 86.603125,32.0859351 86.603125,32.5677083 Z M86.603125,20.0416667 L86.603125,23.125 C86.603125,23.574655 86.4581435,23.944009 86.1681763,24.2330729 C85.878209,24.5221369 85.5077008,24.6666667 85.0566406,24.6666667 L57.2199219,24.6666667 C56.7688617,24.6666667 56.3983535,24.5221369 56.1083862,24.2330729 C55.818419,23.944009 55.6734375,23.574655 55.6734375,23.125 L55.6734375,20.0416667 C55.6734375,19.5920116 55.818419,19.2226577 56.1083862,18.9335937 C56.3983535,18.6445298 56.7688617,18.5 57.2199219,18.5 L85.0566406,18.5 C85.5077008,18.5 85.878209,18.6445298 86.1681763,18.9335937 C86.4581435,19.2226577 86.603125,19.5920116 86.603125,20.0416667 Z M92.7890625,66.2916667 L92.7890625,7.70833333 C92.7890625,7.29079652 92.6360265,6.92947201 92.32995,6.62434896 C92.0238734,6.3192259 91.6614197,6.16666667 91.2425781,6.16666667 L7.73242188,6.16666667 C7.31358026,6.16666667 6.95112661,6.3192259 6.64505005,6.62434896 C6.33897349,6.92947201 6.1859375,7.29079652 6.1859375,7.70833333 L6.1859375,66.2916667 C6.1859375,66.7092035 6.33897349,67.070528 6.64505005,67.375651 C6.95112661,67.6807741 7.31358026,67.8333333 7.73242188,67.8333333 L24.74375,67.8333333 L24.74375,63.2083333 C24.74375,62.7586783 24.8887315,62.3893244 25.1786987,62.1002604 C25.468666,61.8111965 25.8391742,61.6666667 26.2902344,61.6666667 L29.3832031,61.6666667 C29.8342633,61.6666667 30.2047715,61.8111965 30.4947388,62.1002604 C30.784706,62.3893244 30.9296875,62.7586783 30.9296875,63.2083333 L30.9296875,67.8333333 L68.0453125,67.8333333 L68.0453125,63.2083333 C68.0453125,62.7586783 68.190294,62.3893244 68.4802612,62.1002604 C68.7702285,61.8111965 69.1407367,61.6666667 69.5917969,61.6666667 L72.6847656,61.6666667 C73.1358258,61.6666667 73.506334,61.8111965 73.7963013,62.1002604 C74.0862685,62.3893244 74.23125,62.7586783 74.23125,63.2083333 L74.23125,67.8333333 L91.2425781,67.8333333 C91.6614197,67.8333333 92.0238734,67.6807741 92.32995,67.375651 C92.6360265,67.070528 92.7890625,66.7092035 92.7890625,66.2916667 Z M98.975,7.70833333 L98.975,66.2916667 C98.975,68.4114689 98.2178746,70.2261209 96.7036011,71.7356771 C95.1893276,73.2452332 93.3690048,74 91.2425781,74 L7.73242188,74 C5.60599523,74 3.78567245,73.2452332 2.27139893,71.7356771 C0.757125404,70.2261209 0,68.4114689 0,66.2916667 L0,7.70833333 C0,5.58853107 0.757125404,3.77387908 2.27139893,2.26432292 C3.78567245,0.754766758 5.60599523,0 7.73242188,0 L91.2425781,0 C93.3690048,0 95.1893276,0.754766758 96.7036011,2.26432292 C98.2178746,3.77387908 98.975,5.58853107 98.975,7.70833333 Z" id="address-card-o---FontAwesome" fill="#000000"></path>
        <text id="ReactJS-+-Flux-Conta" font-family="Muli-ExtraBold, Muli" font-size="36" font-weight="600" line-spacing="36" fill="#000000">
            <tspan x="123.852" y="36">   ReactJS + Flux </tspan>
            <tspan x="111" y="72">Contacts Dashboard </tspan>
        </text>
    </g>
</svg>